<?xml version="1.0" standalone="no"?>
<!DOCTYPE svg PUBLIC "-//W3C//DTD SVG 20010904//EN"
 "http://www.w3.org/TR/2001/REC-SVG-20010904/DTD/svg10.dtd">
<svg version="1.0" xmlns="http://www.w3.org/2000/svg"
 width="1280.000000pt" height="607.000000pt" viewBox="0 0 1280.000000 607.000000"
 preserveAspectRatio="xMidYMid meet">

<g transform="translate(0.000000,607.000000) scale(0.100000,-0.100000)"
fill="none" stroke="none">
<!-- C/Icono en verde #74bb1a -->
<g fill="#74bb1a">
<path d="M2420 5175 c-8 -2 -69 -13 -135 -25 -322 -59 -650 -204 -890 -395
-105 -83 -278 -259 -355 -360 -487 -642 -537 -1513 -128 -2230 147 -257 230
-354 844 -985 860 -884 814 -840 881 -840 65 0 89 19 293 232 193 202 367 383
626 648 478 491 501 516 627 679 146 189 274 421 352 638 37 102 39 135 7 160
-13 9 -107 12 -412 13 -451 0 -435 3 -486 -87 -143 -254 -340 -426 -595 -522
-511 -190 -1095 7 -1373 465 -106 175 -161 374 -160 579 2 314 105 573 313
788 229 237 525 367 836 367 424 0 777 -207 988 -580 45 -79 56 -93 84 -108
15 -9 135 -12 416 -12 369 0 395 1 410 18 25 27 21 59 -19 179 -50 149 -159
373 -239 490 -310 451 -745 742 -1285 858 -111 24 -150 28 -355 31 -126 1
-237 1 -245 -1z"/>
</g>
<!-- Letras oTrack en blanco -->
<g fill="currentColor">
<path d="M11235 3398 c-3 -7 -4 -407 -3 -888 l3 -875 160 0 160 0 3 205 3 205
72 79 72 78 204 -286 204 -286 199 0 c109 0 198 4 198 8 0 5 -15 29 -34 53
-18 24 -64 87 -103 139 -38 52 -145 198 -237 323 -92 125 -166 232 -164 236 3
8 379 418 471 514 20 21 37 41 37 43 0 2 -93 4 -207 3 l-208 -1 -120 -126
c-227 -240 -360 -384 -370 -400 -7 -12 -12 143 -15 483 l-5 500 -158 3 c-120
2 -159 0 -162 -10z"/>
<path d="M6274 3377 c-2 -7 -3 -74 -2 -148 l3 -134 278 -3 277 -2 0 -730 0
-730 160 0 160 0 0 730 0 730 270 0 270 0 0 150 0 150 -705 0 c-570 0 -707 -3
-711 -13z"/>
<path d="M5455 2945 c-263 -78 -435 -270 -480 -537 -15 -89 -15 -104 0 -200
28 -176 85 -288 206 -402 85 -80 175 -132 289 -167 61 -19 98 -23 200 -23 109
1 136 4 209 28 118 39 211 98 295 187 174 185 231 447 148 682 -76 215 -229
361 -454 432 -111 35 -295 35 -413 0z m357 -288 c69 -34 151 -119 186 -194 24
-52 27 -69 27 -168 0 -106 -1 -113 -35 -179 -40 -79 -101 -138 -183 -180 -53
-27 -63 -28 -150 -24 -110 5 -153 24 -238 105 -83 79 -111 143 -117 265 -4 85
-1 105 18 153 46 113 141 208 238 240 72 23 187 15 254 -18z"/>
<path d="M8325 2963 c-113 -21 -244 -84 -322 -156 l-43 -40 0 92 0 91 -150 0
-150 0 0 -660 0 -660 160 0 160 0 0 331 c0 379 7 430 69 526 45 69 88 108 156
139 51 24 151 44 218 44 l37 0 0 151 0 150 -57 -2 c-32 -2 -67 -5 -78 -6z"/>
<path d="M8885 2946 c-131 -28 -214 -62 -221 -90 -2 -11 -3 -75 -2 -141 l3
-120 27 -3 c15 -2 48 6 74 17 26 12 90 33 142 47 251 68 445 4 447 -149 l0
-52 -215 -6 c-198 -6 -222 -8 -300 -33 -246 -80 -357 -258 -306 -489 38 -171
159 -276 352 -307 166 -27 336 33 472 167 36 35 66 63 68 63 3 0 3 -48 2 -107
l-3 -108 140 0 140 0 3 459 c2 492 0 521 -49 624 -30 60 -111 146 -172 181
-101 57 -172 71 -346 70 -121 -1 -179 -6 -256 -23z m473 -804 c5 -67 -35 -144
-95 -182 -136 -87 -337 -79 -394 14 -40 65 -12 148 60 180 66 30 100 34 266
33 l160 -2 3 -43z"/>
<path d="M10334 2945 c-106 -31 -193 -83 -277 -164 -79 -75 -127 -149 -165
-253 -24 -67 -26 -85 -26 -228 0 -144 1 -161 27 -235 59 -166 161 -286 317
-373 164 -91 400 -105 584 -35 80 30 195 104 251 163 l40 42 -100 94 c-55 51
-102 94 -105 94 -3 0 -30 -19 -60 -41 -30 -23 -80 -54 -110 -68 -48 -23 -68
-26 -160 -26 -96 0 -110 3 -162 29 -108 54 -176 151 -199 280 -31 181 45 342
198 418 58 28 76 32 147 33 97 0 183 -28 245 -82 25 -21 46 -31 53 -27 34 20
228 176 228 184 0 18 -109 102 -180 139 -117 61 -205 81 -346 80 -95 0 -135
-5 -200 -24z"/>
</g>
</g>
</svg>
